<svg width="25" height="22" viewBox="0 0 25 22" fill="none" xmlns="http://www.w3.org/2000/svg">
<path d="M0 1.5625C0 1.1481 0.16462 0.750672 0.457646 0.457646C0.750672 0.16462 1.1481 0 1.5625 0H23.4375C23.8519 0 24.2493 0.16462 24.5424 0.457646C24.8354 0.750672 25 1.1481 25 1.5625C25 1.9769 24.8354 2.37433 24.5424 2.66735C24.2493 2.96038 23.8519 3.125 23.4375 3.125H1.5625C1.1481 3.125 0.750672 2.96038 0.457646 2.66735C0.16462 2.37433 0 1.9769 0 1.5625Z" fill="#484848"/>
<path d="M0 20.3125C0 19.8981 0.16462 19.5007 0.457646 19.2076C0.750672 18.9146 1.1481 18.75 1.5625 18.75H23.4375C23.8519 18.75 24.2493 18.9146 24.5424 19.2076C24.8354 19.5007 25 19.8981 25 20.3125C25 20.7269 24.8354 21.1243 24.5424 21.4174C24.2493 21.7104 23.8519 21.875 23.4375 21.875H1.5625C1.1481 21.875 0.750672 21.7104 0.457646 21.4174C0.16462 21.1243 0 20.7269 0 20.3125Z" fill="#484848"/>
<path d="M1.5625 9.375C1.1481 9.375 0.750672 9.53962 0.457646 9.83265C0.16462 10.1257 0 10.5231 0 10.9375C0 11.3519 0.16462 11.7493 0.457646 12.0424C0.750672 12.3354 1.1481 12.5 1.5625 12.5H14.0625C14.4769 12.5 14.8743 12.3354 15.1674 12.0424C15.4604 11.7493 15.625 11.3519 15.625 10.9375C15.625 10.5231 15.4604 10.1257 15.1674 9.83265C14.8743 9.53962 14.4769 9.375 14.0625 9.375H1.5625Z" fill="#484848"/>
</svg>
